<?xml version="1.0" standalone="no"?>
<!DOCTYPE svg PUBLIC "-//W3C//DTD SVG 20010904//EN"
 "http://www.w3.org/TR/2001/REC-SVG-20010904/DTD/svg10.dtd">
<svg version="1.0" xmlns="http://www.w3.org/2000/svg"
 width="225.000000pt" height="225.000000pt" viewBox="0 0 225.000000 225.000000"
 preserveAspectRatio="xMidYMid meet">
<metadata>
Created by potrace 1.11, written by Peter Selinger 2001-2013
</metadata>
<g transform="translate(0.000000,225.000000) scale(0.100000,-0.100000)"
fill="#000000" stroke="none">
<path d="M0 1125 l0 -1125 1125 0 1125 0 0 1125 0 1125 -1125 0 -1125 0 0
-1125z m1193 810 c46 -22 80 -77 80 -129 l0 -43 160 -81 160 -80 34 25 c68 52
179 28 218 -47 19 -37 19 -103 0 -140 -18 -34 -65 -70 -94 -70 -25 0 -26 -6
-44 -168 l-13 -123 25 -14 c85 -43 103 -156 37 -227 l-25 -27 53 -143 c102
-273 138 -379 131 -386 -11 -10 -35 30 -78 132 -21 50 -60 141 -86 201 -27 61
-52 121 -56 133 -5 19 -12 23 -31 19 -15 -3 -24 0 -24 8 0 7 -12 16 -27 20
-16 3 -35 13 -43 20 -13 12 -35 -2 -163 -101 -131 -102 -147 -118 -140 -137 4
-12 6 -51 5 -85 -2 -35 0 -77 3 -93 6 -25 12 -29 56 -35 45 -6 49 -9 48 -33
-2 -23 -2 -24 -6 -3 -4 19 -11 22 -48 22 l-44 0 6 -38 c5 -30 3 -35 -8 -25
-16 16 -285 18 -294 3 -13 -22 -23 -8 -18 25 l6 35 -54 1 -54 1 54 9 c30 5 57
11 59 14 2 2 5 48 6 102 1 54 4 103 7 110 2 6 -61 62 -141 125 l-145 113 -35
-17 c-19 -9 -41 -22 -48 -28 -7 -7 -21 -10 -31 -7 -14 3 -32 -30 -100 -192
-115 -270 -130 -301 -148 -301 -8 0 -13 6 -10 13 125 328 187 514 178 527 -41
56 -51 79 -51 118 0 53 24 96 68 124 32 20 33 23 28 67 -3 25 -11 90 -17 143
-6 54 -15 96 -19 93 -3 -2 -25 5 -48 16 -29 15 -47 33 -62 65 -68 139 102 277
219 178 l30 -25 160 81 161 80 0 44 c0 106 116 177 213 131z m-589 -1214 c-4
-17 -9 -30 -11 -27 -3 2 -2 19 2 36 4 17 9 30 11 27 2 -2 1 -18 -2 -36z m1053
-3 c-3 -7 -5 -2 -5 12 0 14 2 19 5 13 2 -7 2 -19 0 -25z m10 -40 c-3 -8 -6 -5
-6 6 -1 11 2 17 5 13 3 -3 4 -12 1 -19z m-1080 -30 c-3 -7 -5 -2 -5 12 0 14 2
19 5 13 2 -7 2 -19 0 -25z m1090 -10 c-3 -8 -6 -5 -6 6 -1 11 2 17 5 13 3 -3
4 -12 1 -19z m-1100 -30 c-3 -8 -6 -5 -6 6 -1 11 2 17 5 13 3 -3 4 -12 1 -19z
m1130 -100 c-3 -8 -6 -5 -6 6 -1 11 2 17 5 13 3 -3 4 -12 1 -19z m10 -40 c-3
-8 -6 -5 -6 6 -1 11 2 17 5 13 3 -3 4 -12 1 -19z m10 -50 c-3 -8 -6 -5 -6 6
-1 11 2 17 5 13 3 -3 4 -12 1 -19z m-1200 -20 c-3 -8 -6 -5 -6 6 -1 11 2 17 5
13 3 -3 4 -12 1 -19z m1210 -20 c-3 -8 -6 -5 -6 6 -1 11 2 17 5 13 3 -3 4 -12
1 -19z m-1220 -20 c-3 -8 -6 -5 -6 6 -1 11 2 17 5 13 3 -3 4 -12 1 -19z"/>
<path d="M841 1631 l-153 -77 -2 -47 -2 -47 64 -40 c35 -22 65 -40 67 -40 2 0
45 -25 95 -55 50 -30 96 -55 103 -55 7 0 23 9 37 20 14 11 31 20 38 20 9 0 12
42 12 174 l0 174 -30 12 c-16 7 -35 18 -41 26 -6 8 -17 14 -23 13 -6 0 -80
-35 -165 -78z"/>
<path d="M1230 1695 c-6 -8 -27 -20 -46 -27 l-34 -12 0 -171 1 -170 49 -23 49
-23 159 93 160 93 4 47 3 48 -160 80 c-88 44 -163 80 -166 80 -4 0 -12 -7 -19
-15z"/>
<path d="M622 1391 c-12 -11 -26 -21 -31 -23 -4 -2 -1 -65 8 -141 l16 -139 40
-14 c22 -7 47 -22 56 -33 17 -20 18 -20 125 28 60 26 117 51 127 54 11 4 17
17 17 36 0 16 2 36 5 43 4 9 -46 44 -157 108 -89 52 -167 96 -172 97 -6 2 -21
-6 -34 -16z"/>
<path d="M1510 1359 c-47 -28 -103 -61 -125 -74 -124 -70 -124 -70 -104 -107
8 -15 8 -19 0 -14 -6 4 -11 0 -11 -8 0 -20 12 -27 145 -86 l110 -48 25 24 c14
13 40 27 58 30 18 4 32 8 32 11 0 2 7 65 16 139 8 75 14 137 12 137 -2 1 -17
12 -35 25 -18 12 -33 22 -35 22 -2 -1 -41 -23 -88 -51z"/>
<path d="M875 1026 l-120 -52 -3 -39 c-2 -22 -7 -44 -12 -50 -9 -11 9 -28 171
-152 l106 -82 16 102 c9 56 22 139 28 183 l12 82 -34 30 c-19 17 -36 31 -39
31 -3 0 -59 -24 -125 -53z"/>
<path d="M1229 1060 c-9 -10 -24 -22 -33 -27 -15 -8 -14 -23 9 -173 14 -91 27
-175 30 -187 5 -21 17 -13 145 88 134 106 139 111 129 136 -5 15 -9 37 -7 50
3 22 -9 29 -120 79 -67 30 -126 54 -130 53 -4 0 -14 -9 -23 -19z"/>
<path d="M1086 954 c-9 -24 -7 -74 3 -74 11 0 20 80 10 86 -4 2 -10 -3 -13
-12z"/>
<path d="M1153 958 c1 -8 -7 -12 -18 -11 -20 1 -20 1 -1 -13 28 -20 36 -18 36
11 0 14 -4 25 -10 25 -5 0 -9 -6 -7 -12z"/>
<path d="M1156 902 c-3 -5 -3 -21 0 -37 4 -25 2 -27 -18 -22 -22 6 -22 5 -4
-8 36 -27 54 -12 48 38 -4 35 -15 47 -26 29z"/>
<path d="M1083 862 c-6 -4 -14 -24 -18 -45 -6 -33 -5 -37 13 -37 16 0 21 8 24
41 4 42 -1 52 -19 41z"/>
<path d="M1155 800 c-3 -5 -3 -20 -1 -35 3 -15 0 -25 -7 -25 -7 0 -8 -3 -1
-10 14 -14 54 0 54 19 -1 48 -27 80 -45 51z"/>
<path d="M1070 759 c-14 -4 -22 -7 -19 -8 4 -1 3 -17 -1 -36 -8 -34 -7 -35 21
-35 27 0 29 3 29 36 0 28 3 35 15 30 21 -8 19 1 -2 12 -10 5 -29 6 -43 1z"/>
<path d="M1157 695 c-4 -9 5 -19 23 -29 30 -14 30 -14 30 15 0 24 -4 29 -24
29 -13 0 -26 -7 -29 -15z"/>
<path d="M1040 659 c0 -5 5 -7 10 -4 6 3 10 8 10 11 0 2 -4 4 -10 4 -5 0 -10
-5 -10 -11z"/>
<path d="M1130 646 c0 -2 7 -9 15 -16 9 -7 15 -8 15 -2 0 5 -7 12 -15 16 -8 3
-15 4 -15 2z"/>
<path d="M1125 545 c22 -14 47 -25 55 -25 8 0 -6 11 -32 25 -60 32 -75 32 -23
0z"/>
<path d="M1048 452 c-70 -6 -38 -20 42 -19 44 0 80 4 80 8 0 9 -72 15 -122 11z"/>
<path d="M1180 440 c0 -5 16 -9 35 -8 19 1 35 5 35 10 0 4 -16 8 -35 8 -19 0
-35 -4 -35 -10z"/>
</g>
</svg>
